<?xml version="1.0" encoding="UTF-8"?>
<!--Generator: Apple Native CoreSVG 175.5-->
<!-- fuck you apple i can do whatever i want with this icon and you can't do shit -->
<svg version="1.1" xmlns="http://www.w3.org/2000/svg" xmlns:xlink="http://www.w3.org/1999/xlink" width="523.75" height="547.75">
 <g>
  <rect height="547.75" opacity="0" width="523.75" x="0" y="0"/>
  <path d="M313 547.75C331 547.75 343.75 532.25 353 508.25L516.75 80.5C521.25 69 523.75 58.75 523.75 50.25C523.75 34 513.75 24 497.5 24C489 24 478.75 26.5 467.25 31L37.25 195.75C16.25 203.75 0 216.5 0 234.75C0 257.75 17.5 265.5 41.5 272.75L176.5 313.75C192.5 318.75 201.5 318.25 212.25 308.25L486.5 52C489.75 49 493.5 49.5 496 51.75C498.5 54.25 498.75 58 495.75 61.25L240.5 336.5C230.75 346.75 230 355.25 234.75 372L274.5 504C282 529.25 289.75 547.75 313 547.75Z" fill="#ffffff" fill-opacity="1.00"/>
 </g>
</svg>
