<?xml version="1.0" encoding="UTF-8"?>
<svg width="1260px" height="865px" viewBox="0 0 1260 865" version="1.1" xmlns="http://www.w3.org/2000/svg" xmlns:xlink="http://www.w3.org/1999/xlink">
    <title>superposition</title>
    <g id="Page-1" stroke="none" stroke-width="1" fill="none" fill-rule="evenodd">
        <g id="Group" fill-rule="nonzero">
            <g id="cloud">
                <rect id="Rectangle" fill="#000000" opacity="0" x="0" y="0" width="597.5" height="399.25"></rect>
                <path d="M122.5,395.75 L448,395.75 C532.25,395.75 597.5,332 597.5,250.5 C597.5,168.25 530.75,106.25 440,106.25 C406.75,40.25 345.75,0 271.5,0 C174.5,0 92.5,75.25 83.75,175 C33.75,189.25 0,231.25 0,284.5 C0,346 44.75,395.75 122.5,395.75 Z M122,355.5 C70.75,355.5 40.25,327.75 40.25,285.75 C40.25,249.75 63.25,223.75 103.75,213 C117.75,209.5 123,203 124,188.5 C130,103.75 193.5,40.25 271.5,40.25 C331.75,40.25 378.25,73.75 406.25,131.25 C412.25,143.5 419.5,147.75 434.75,147.75 C513,147.75 557,195 557,251.5 C557,309.75 510.5,355.5 450.75,355.5 L122,355.5 Z" id="Shape" fill="#FFFFFF"></path>
            </g>
            <g id="globe" transform="translate(205.000000, 128.000000)">
                <rect id="Rectangle" fill="#000000" opacity="0" x="0" y="0" width="187" height="187"></rect>
                <path d="M93.5,181.866667 C118.983333,181.866667 139.791667,144.191667 139.791667,93.6833333 C139.791667,42.9 119.075,5.225 93.5,5.225 C67.925,5.225 47.2083333,42.9 47.2083333,93.6833333 C47.2083333,144.191667 68.0166667,181.866667 93.5,181.866667 Z M93.5,16.3166667 C111.466667,16.3166667 127.508333,52.0666667 127.508333,93.6833333 C127.508333,134.566667 111.466667,170.683333 93.5,170.683333 C75.5333333,170.683333 59.4916667,134.566667 59.4916667,93.6833333 C59.4916667,52.0666667 75.5333333,16.3166667 93.5,16.3166667 Z M87.5416667,6.50833333 L87.5416667,180.125 L99.55,180.125 L99.55,6.50833333 L87.5416667,6.50833333 Z M93.5,127.966667 C65.2666667,127.966667 40.2416667,135.391667 27.4083333,147.216667 L36.6666667,154.825 C48.7666667,145.2 68.475,139.975 93.5,139.975 C118.525,139.975 138.233333,145.2 150.333333,154.825 L159.591667,147.216667 C146.758333,135.391667 121.733333,127.966667 93.5,127.966667 Z M178.108333,87.45 L8.89166667,87.45 L8.89166667,99.4583333 L178.108333,99.4583333 L178.108333,87.45 Z M93.5,59.4916667 C121.733333,59.4916667 146.758333,52.0666667 159.591667,40.2416667 L150.333333,32.6333333 C138.233333,42.1666667 118.525,47.4833333 93.5,47.4833333 C68.475,47.4833333 48.7666667,42.1666667 36.6666667,32.6333333 L27.4083333,40.2416667 C40.2416667,52.0666667 65.2666667,59.4916667 93.5,59.4916667 Z M93.5,187 C144.65,187 187,144.558333 187,93.5 C187,42.35 144.558333,0 93.4083333,0 C42.35,0 0,42.35 0,93.5 C0,144.558333 42.4416667,187 93.5,187 Z M93.5,174.533333 C49.225,174.533333 12.4666667,137.775 12.4666667,93.5 C12.4666667,49.225 49.1333333,12.4666667 93.4083333,12.4666667 C137.683333,12.4666667 174.533333,49.225 174.533333,93.5 C174.533333,137.775 137.775,174.533333 93.5,174.533333 Z" id="Shape" fill="#FFFFFF"></path>
            </g>
        </g>
        <g id="Group-2" transform="translate(775.000000, 498.000000)" fill-rule="nonzero">
            <g id="globe" transform="translate(142.000000, 124.000000)">
                <rect id="Rectangle" fill="#000000" opacity="0" x="0" y="0" width="187" height="187"></rect>
                <path d="M93.5,181.866667 C118.983333,181.866667 139.791667,144.191667 139.791667,93.6833333 C139.791667,42.9 119.075,5.225 93.5,5.225 C67.925,5.225 47.2083333,42.9 47.2083333,93.6833333 C47.2083333,144.191667 68.0166667,181.866667 93.5,181.866667 Z M93.5,16.3166667 C111.466667,16.3166667 127.508333,52.0666667 127.508333,93.6833333 C127.508333,134.566667 111.466667,170.683333 93.5,170.683333 C75.5333333,170.683333 59.4916667,134.566667 59.4916667,93.6833333 C59.4916667,52.0666667 75.5333333,16.3166667 93.5,16.3166667 Z M87.5416667,6.50833333 L87.5416667,180.125 L99.55,180.125 L99.55,6.50833333 L87.5416667,6.50833333 Z M93.5,127.966667 C65.2666667,127.966667 40.2416667,135.391667 27.4083333,147.216667 L36.6666667,154.825 C48.7666667,145.2 68.475,139.975 93.5,139.975 C118.525,139.975 138.233333,145.2 150.333333,154.825 L159.591667,147.216667 C146.758333,135.391667 121.733333,127.966667 93.5,127.966667 Z M178.108333,87.45 L8.89166667,87.45 L8.89166667,99.4583333 L178.108333,99.4583333 L178.108333,87.45 Z M93.5,59.4916667 C121.733333,59.4916667 146.758333,52.0666667 159.591667,40.2416667 L150.333333,32.6333333 C138.233333,42.1666667 118.525,47.4833333 93.5,47.4833333 C68.475,47.4833333 48.7666667,42.1666667 36.6666667,32.6333333 L27.4083333,40.2416667 C40.2416667,52.0666667 65.2666667,59.4916667 93.5,59.4916667 Z M93.5,187 C144.65,187 187,144.558333 187,93.5 C187,42.35 144.558333,0 93.4083333,0 C42.35,0 0,42.35 0,93.5 C0,144.558333 42.4416667,187 93.5,187 Z M93.5,174.533333 C49.225,174.533333 12.4666667,137.775 12.4666667,93.5 C12.4666667,49.225 49.1333333,12.4666667 93.4083333,12.4666667 C137.683333,12.4666667 174.533333,49.225 174.533333,93.5 C174.533333,137.775 137.775,174.533333 93.5,174.533333 Z" id="Shape" fill="#FFFFFF"></path>
            </g>
            <g id="macwindow">
                <rect id="Rectangle" fill="#000000" opacity="0" x="0" y="0" width="470" height="367"></rect>
                <path d="M0,305.202064 C0,346.467137 20.9287532,367 62.5869381,367 L407.413062,367 C449.270568,367 470,346.267789 470,305.202064 L470,61.7979359 C470,20.7322108 449.270568,0 407.413062,0 L62.5869381,0 C20.9287532,0 0,20.5328626 0,61.7979359 L0,305.202064 Z M63.1849025,67.9777295 C53.418151,67.9777295 45.4452926,59.6051059 45.4452926,50.2357414 C45.4452926,40.866377 53.418151,32.4937534 63.1849025,32.4937534 C72.9516539,32.4937534 81.1238338,40.866377 81.1238338,50.2357414 C81.1238338,59.6051059 72.9516539,67.9777295 63.1849025,67.9777295 Z M120.390161,67.9777295 C110.62341,67.9777295 102.650551,59.6051059 102.650551,50.2357414 C102.650551,40.866377 110.62341,32.4937534 120.390161,32.4937534 C130.156913,32.4937534 138.329092,40.866377 138.329092,50.2357414 C138.329092,59.6051059 130.156913,67.9777295 120.390161,67.9777295 Z M177.59542,67.9777295 C167.828668,67.9777295 159.85581,59.6051059 159.85581,50.2357414 C159.85581,40.866377 167.828668,32.4937534 177.59542,32.4937534 C187.362171,32.4937534 195.33503,40.866377 195.33503,50.2357414 C195.33503,59.6051059 187.362171,67.9777295 177.59542,67.9777295 Z M32.0907549,303.607279 L32.0907549,100.471483 L437.909245,100.471483 L437.909245,303.607279 C437.909245,324.339489 426.747243,334.904943 407.014419,334.904943 L62.985581,334.904943 C43.0534351,334.904943 32.0907549,324.339489 32.0907549,303.607279 Z" id="Shape" fill="#FFFFFF"></path>
            </g>
        </g>
        <line x1="539.250608" y1="357.508563" x2="797.768877" y2="518.484662" id="Line" stroke="#FFFFFF" stroke-width="27" stroke-linecap="square" stroke-dasharray="46" transform="translate(668.418607, 437.750223) rotate(2.249688) translate(-668.418607, -437.750223) "></line>
    </g>
    <!-- <style>
        path { fill: #000; }
        @media (prefers-color-scheme: dark) {
            path { fill: #FFF; }
        }
    </style> -->
</svg>